<svg xmlns="http://www.w3.org/2000/svg" version="1.1" xmlns:xlink="http://www.w3.org/1999/xlink" xmlns:svgjs="http://svgjs.dev/svgjs" width="2000" height="257" viewBox="0 0 2000 257"><g transform="matrix(1,0,0,1,-1.2121212121212466,-0.6013389230971313)"><svg viewBox="0 0 396 51" data-background-color="#ffffff" preserveAspectRatio="xMidYMid meet" height="257" width="2000" xmlns="http://www.w3.org/2000/svg" xmlns:xlink="http://www.w3.org/1999/xlink"><g id="tight-bounds" transform="matrix(1,0,0,1,0.2400000000000091,0.11933184855234913)"><svg viewBox="0 0 395.52 50.761336302895316" height="50.761336302895316" width="395.52"><g><svg viewBox="0 0 395.52 50.761336302895316" height="50.761336302895316" width="395.52"><g><svg viewBox="0 0 395.52 50.761336302895316" height="50.761336302895316" width="395.52"><g id="textblocktransform"><svg viewBox="0 0 395.52 50.761336302895316" height="50.761336302895316" width="395.52" id="textblock"><g><svg viewBox="0 0 395.52 50.761336302895316" height="50.761336302895316" width="395.52"><g transform="matrix(1,0,0,1,0,0)"><svg width="395.52" viewBox="0.35 -35.25 359.15999999999997 46.1" height="50.761336302895316" data-palette-color="#ff908b"><path d="M11.75-35.25Q14.75-35.25 17.05-34.2 19.35-33.15 21.3-31.05L21.3-31.05 18.35-27.65Q16.8-29.05 15.33-29.75 13.85-30.45 12.2-30.45L12.2-30.45Q10.3-30.45 9.2-29.28 8.1-28.1 8.1-26.2L8.1-26.2Q8.1-24.3 9.25-23.1 10.4-21.9 13.75-20.6L13.75-20.6Q18.05-18.85 20.08-16.5 22.1-14.15 22.1-9.85L22.1-9.85Q22.1-6.9 20.75-4.48 19.4-2.05 16.88-0.65 14.35 0.75 11 0.75L11 0.75Q7.55 0.75 5-0.48 2.45-1.7 0.35-3.95L0.35-3.95 3.55-7.45Q5.35-5.85 7-5 8.65-4.15 10.6-4.15L10.6-4.15Q12.9-4.15 14.18-5.58 15.45-7 15.45-9.45L15.45-9.45Q15.45-11.6 14.33-12.98 13.2-14.35 10.15-15.5L10.15-15.5Q5.55-17.35 3.53-19.75 1.5-22.15 1.5-25.75L1.5-25.75Q1.5-28.5 2.83-30.65 4.15-32.8 6.5-34.02 8.85-35.25 11.75-35.25L11.75-35.25ZM37.25-5L39.4-1.2Q36.95 0.75 33.65 0.75L33.65 0.75Q30.2 0.75 28.4-1.23 26.6-3.2 26.6-6.6L26.6-6.6 26.6-22 23.5-22 23.5-26.45 26.6-26.45 26.6-32.3 32.75-33.05 32.75-26.45 37.75-26.45 37.15-22 32.75-22 32.75-6.6Q32.75-4.2 34.8-4.2L34.8-4.2Q35.45-4.2 35.95-4.38 36.45-4.55 37.25-5L37.25-5ZM51.34-27.15Q56.34-27.15 59.12-23.65 61.89-20.15 61.89-13.25L61.89-13.25Q61.89-6.65 59.09-2.95 56.3 0.75 51.34 0.75L51.34 0.75Q46.39 0.75 43.59-2.88 40.8-6.5 40.8-13.25L40.8-13.25Q40.8-19.95 43.59-23.55 46.39-27.15 51.34-27.15L51.34-27.15ZM51.34-22.5Q49.2-22.5 48.2-20.38 47.2-18.25 47.2-13.25L47.2-13.25Q47.2-8.2 48.2-6.08 49.2-3.95 51.34-3.95L51.34-3.95Q53.49-3.95 54.49-6.08 55.5-8.2 55.5-13.25L55.5-13.25Q55.5-18.3 54.49-20.4 53.49-22.5 51.34-22.5L51.34-22.5ZM78.09-27.1Q79.24-27.1 80.14-26.75L80.14-26.75 79.14-20.85Q78.14-21.1 77.29-21.1L77.29-21.1Q75.39-21.1 74.29-19.45 73.19-17.8 72.59-14.55L72.59-14.55 72.59 0 66.44 0 66.44-26.45 71.79-26.45 72.24-21.85Q74.09-27.1 78.09-27.1L78.09-27.1ZM101.84-13.85Q101.84-13.4 101.69-11.3L101.69-11.3 88.04-11.3Q88.24-7.2 89.47-5.58 90.69-3.95 92.94-3.95L92.94-3.95Q94.49-3.95 95.74-4.48 96.99-5 98.44-6.15L98.44-6.15 100.99-2.65Q97.49 0.75 92.59 0.75L92.59 0.75Q87.39 0.75 84.61-2.85 81.84-6.45 81.84-13L81.84-13Q81.84-19.55 84.49-23.35 87.14-27.15 91.99-27.15L91.99-27.15Q96.64-27.15 99.24-23.78 101.84-20.4 101.84-13.85L101.84-13.85ZM95.84-15.3L95.84-15.65Q95.84-19.4 94.94-21.13 94.04-22.85 92.04-22.85L92.04-22.85Q90.19-22.85 89.22-21.18 88.24-19.5 88.04-15.3L88.04-15.3 95.84-15.3ZM142.19-34.55L144.39 0 138.34 0 137.74-14.6Q137.44-22.6 137.44-26L137.44-26 137.49-28.6 132.74-3.8 126.74-3.8 121.79-28.65Q121.84-27.15 121.84-24.05L121.84-24.05Q121.84-18.8 121.64-14.4L121.64-14.4 121.09 0 115.14 0 117.34-34.55 125.34-34.55 129.84-10.2 134.04-34.55 142.19-34.55ZM166.08-6.4Q166.08-5.1 166.43-4.48 166.78-3.85 167.58-3.45L167.58-3.45 166.33 0.65Q164.28 0.4 163.06-0.45 161.83-1.3 161.23-3.05L161.23-3.05Q158.93 0.75 154.78 0.75L154.78 0.75Q151.48 0.75 149.53-1.48 147.58-3.7 147.58-7.4L147.58-7.4Q147.58-11.7 150.26-13.95 152.93-16.2 158.03-16.2L158.03-16.2 160.08-16.2 160.08-18.05Q160.08-20.55 159.21-21.58 158.33-22.6 156.38-22.6L156.38-22.6Q154.03-22.6 150.53-21.3L150.53-21.3 149.13-25.3Q151.13-26.2 153.28-26.68 155.43-27.15 157.38-27.15L157.38-27.15Q166.08-27.15 166.08-18.35L166.08-18.35 166.08-6.4ZM156.43-3.7Q158.83-3.7 160.08-7L160.08-7 160.08-12.55 158.63-12.55Q156.08-12.55 154.91-11.4 153.73-10.25 153.73-7.85L153.73-7.85Q153.73-5.8 154.43-4.75 155.13-3.7 156.43-3.7L156.43-3.7ZM184.23-27.15Q187.08-27.15 188.73-25.1 190.38-23.05 190.38-19.6L190.38-19.6 190.38 0 184.23 0 184.23-18.9Q184.23-20.8 183.71-21.63 183.18-22.45 182.18-22.45L182.18-22.45Q180.08-22.45 178.03-18.5L178.03-18.5 178.03 0 171.88 0 171.88-26.45 177.23-26.45 177.68-23Q179.03-25.1 180.56-26.13 182.08-27.15 184.23-27.15L184.23-27.15ZM212.83-6.4Q212.83-5.1 213.18-4.48 213.53-3.85 214.33-3.45L214.33-3.45 213.08 0.65Q211.03 0.4 209.8-0.45 208.58-1.3 207.98-3.05L207.98-3.05Q205.68 0.75 201.53 0.75L201.53 0.75Q198.23 0.75 196.28-1.48 194.33-3.7 194.33-7.4L194.33-7.4Q194.33-11.7 197-13.95 199.68-16.2 204.78-16.2L204.78-16.2 206.83-16.2 206.83-18.05Q206.83-20.55 205.95-21.58 205.08-22.6 203.13-22.6L203.13-22.6Q200.78-22.6 197.28-21.3L197.28-21.3 195.88-25.3Q197.88-26.2 200.03-26.68 202.18-27.15 204.13-27.15L204.13-27.15Q212.83-27.15 212.83-18.35L212.83-18.35 212.83-6.4ZM203.18-3.7Q205.58-3.7 206.83-7L206.83-7 206.83-12.55 205.38-12.55Q202.83-12.55 201.65-11.4 200.48-10.25 200.48-7.85L200.48-7.85Q200.48-5.8 201.18-4.75 201.88-3.7 203.18-3.7L203.18-3.7ZM236.58-29.85L238.13-25.1Q237.08-24.6 235.6-24.4 234.13-24.2 231.93-24.2L231.93-24.2Q234.03-23.2 235.05-21.53 236.08-19.85 236.08-17.4L236.08-17.4Q236.08-13.4 233.63-10.95 231.18-8.5 226.98-8.5L226.98-8.5Q225.73-8.5 224.43-8.9L224.43-8.9Q223.53-8.15 223.53-6.85L223.53-6.85Q223.53-5.85 224.08-5.35 224.63-4.85 226.13-4.85L226.13-4.85 228.93-4.85Q232.93-4.85 235.28-2.78 237.63-0.7 237.63 2.5L237.63 2.5Q237.63 6.3 234.7 8.58 231.78 10.85 226.38 10.85L226.38 10.85Q220.68 10.85 218.4 8.75 216.13 6.65 216.13 2.6L216.13 2.6 221.58 2.6Q221.58 4.75 222.58 5.65 223.58 6.55 226.43 6.55L226.43 6.55Q229.18 6.55 230.33 5.6 231.48 4.65 231.48 2.9L231.48 2.9Q231.48 1.2 230.53 0.4 229.58-0.4 227.58-0.4L227.58-0.4 225.68-0.4Q221.88-0.4 220.13-1.75 218.38-3.1 218.38-5.45L218.38-5.45Q218.38-6.8 219.1-8.03 219.83-9.25 221.08-10.2L221.08-10.2Q219.03-11.5 218.08-13.3 217.13-15.1 217.13-17.7L217.13-17.7Q217.13-22.05 219.73-24.58 222.33-27.1 226.73-27.1L226.73-27.1Q229.98-27.1 232.1-27.8 234.23-28.5 236.58-29.85L236.58-29.85ZM226.73-23Q224.98-23 224.08-21.75 223.18-20.5 223.18-17.8L223.18-17.8Q223.18-15.25 224.08-13.88 224.98-12.5 226.68-12.5L226.68-12.5Q228.43-12.5 229.28-13.73 230.13-14.95 230.13-17.85L230.13-17.85Q230.13-20.55 229.3-21.78 228.48-23 226.73-23L226.73-23ZM259.72-13.85Q259.72-13.4 259.57-11.3L259.57-11.3 245.92-11.3Q246.12-7.2 247.35-5.58 248.57-3.95 250.82-3.95L250.82-3.95Q252.37-3.95 253.62-4.48 254.87-5 256.32-6.15L256.32-6.15 258.87-2.65Q255.37 0.75 250.47 0.75L250.47 0.75Q245.27 0.75 242.5-2.85 239.72-6.45 239.72-13L239.72-13Q239.72-19.55 242.37-23.35 245.02-27.15 249.87-27.15L249.87-27.15Q254.52-27.15 257.12-23.78 259.72-20.4 259.72-13.85L259.72-13.85ZM253.72-15.3L253.72-15.65Q253.72-19.4 252.82-21.13 251.92-22.85 249.92-22.85L249.92-22.85Q248.07-22.85 247.1-21.18 246.12-19.5 245.92-15.3L245.92-15.3 253.72-15.3ZM287.67-27.15Q290.32-27.15 291.92-25.1 293.52-23.05 293.52-19.6L293.52-19.6 293.52 0 287.47 0 287.47-18.95Q287.47-20.85 286.97-21.68 286.47-22.5 285.52-22.5L285.52-22.5Q283.57-22.5 281.77-18.8L281.77-18.8 281.77 0 275.77 0 275.77-18.95Q275.77-22.5 273.87-22.5L273.87-22.5Q271.82-22.5 270.07-18.8L270.07-18.8 270.07 0 264.02 0 264.02-26.45 269.37-26.45 269.77-23.05Q272.37-27.15 276.02-27.15L276.02-27.15Q277.87-27.15 279.22-26 280.57-24.85 281.27-22.75L281.27-22.75Q283.92-27.15 287.67-27.15L287.67-27.15ZM317.87-13.85Q317.87-13.4 317.72-11.3L317.72-11.3 304.07-11.3Q304.27-7.2 305.49-5.58 306.72-3.95 308.97-3.95L308.97-3.95Q310.52-3.95 311.77-4.48 313.02-5 314.47-6.15L314.47-6.15 317.02-2.65Q313.52 0.75 308.62 0.75L308.62 0.75Q303.42 0.75 300.64-2.85 297.87-6.45 297.87-13L297.87-13Q297.87-19.55 300.52-23.35 303.17-27.15 308.02-27.15L308.02-27.15Q312.67-27.15 315.27-23.78 317.87-20.4 317.87-13.85L317.87-13.85ZM311.87-15.3L311.87-15.65Q311.87-19.4 310.97-21.13 310.07-22.85 308.07-22.85L308.07-22.85Q306.22-22.85 305.24-21.18 304.27-19.5 304.07-15.3L304.07-15.3 311.87-15.3ZM334.51-27.15Q337.37-27.15 339.01-25.1 340.67-23.05 340.67-19.6L340.67-19.6 340.67 0 334.51 0 334.51-18.9Q334.51-20.8 333.99-21.63 333.46-22.45 332.46-22.45L332.46-22.45Q330.37-22.45 328.31-18.5L328.31-18.5 328.31 0 322.17 0 322.17-26.45 327.51-26.45 327.96-23Q329.31-25.1 330.84-26.13 332.37-27.15 334.51-27.15L334.51-27.15ZM357.36-5L359.51-1.2Q357.06 0.75 353.76 0.75L353.76 0.75Q350.31 0.75 348.51-1.23 346.71-3.2 346.71-6.6L346.71-6.6 346.71-22 343.61-22 343.61-26.45 346.71-26.45 346.71-32.3 352.86-33.05 352.86-26.45 357.86-26.45 357.26-22 352.86-22 352.86-6.6Q352.86-4.2 354.91-4.2L354.91-4.2Q355.56-4.2 356.06-4.38 356.56-4.55 357.36-5L357.36-5Z" opacity="1" transform="matrix(1,0,0,1,0,0)" fill="#ff908b" class="wordmark-text-0" data-fill-palette-color="primary" id="text-0"></path></svg></g></svg></g></svg></g></svg></g><g></g></svg></g><defs></defs></svg><rect width="395.52" height="50.761336302895316" fill="none" stroke="none" visibility="hidden"></rect></g></svg></g></svg>