<svg xmlns="http://www.w3.org/2000/svg" version="1.1" xmlns:xlink="http://www.w3.org/1999/xlink" xmlns:svgjs="http://svgjs.dev/svgjs" width="2000" height="712" viewBox="0 0 2000 712"><g transform="matrix(1,0,0,1,-1.2121212121212466,-1.340648342616987)"><svg viewBox="0 0 396 141" data-background-color="#f2a654" preserveAspectRatio="xMidYMid meet" height="712" width="2000" xmlns="http://www.w3.org/2000/svg" xmlns:xlink="http://www.w3.org/1999/xlink"><g id="tight-bounds" transform="matrix(1,0,0,1,0.2400000000000091,0.2654935622317396)"><svg viewBox="0 0 395.52 140.4690128755365" height="140.4690128755365" width="395.52"><g><svg viewBox="0 0 395.52 140.4690128755365" height="140.4690128755365" width="395.52"><g><svg viewBox="0 0 395.52 140.4690128755365" height="140.4690128755365" width="395.52"><g id="textblocktransform"><svg viewBox="0 0 395.52 140.4690128755365" height="140.4690128755365" width="395.52" id="textblock"><g><svg viewBox="0 0 395.52 140.4690128755365" height="140.4690128755365" width="395.52"><g transform="matrix(1,0,0,1,0,0)"><svg width="395.52" viewBox="2.249999999999999 -35.45 281.55 96.30000000000001" height="140.4690128755365" data-palette-color="#ffffff"><svg></svg><svg></svg><g class="wordmark-text-0" data-fill-palette-color="primary" id="text-0"><path d="M12.7 0.55v0c-2.447 0-4.587-0.41-6.42-1.23-1.833-0.813-3.177-1.67-4.03-2.57v0l2.55-5.25c0.353 0.447 0.907 0.953 1.66 1.52 0.76 0.567 1.643 1.063 2.65 1.49 1.013 0.427 2.06 0.64 3.14 0.64v0c1.253 0 2.34-0.35 3.26-1.05 0.927-0.7 1.39-1.733 1.39-3.1v0c0-1.353-0.48-2.423-1.44-3.21-0.953-0.793-2.257-1.69-3.91-2.69v0c-1.347-0.82-2.67-1.69-3.97-2.61-1.3-0.927-2.38-2.06-3.24-3.4-0.86-1.347-1.29-3.043-1.29-5.09v0c0-2.753 0.88-5.017 2.64-6.79 1.76-1.773 4.313-2.66 7.66-2.66v0c1.7 0 3.147 0.2 4.34 0.6 1.193 0.4 2.16 0.857 2.9 1.37 0.74 0.52 1.293 0.947 1.66 1.28v0l-2.8 5.1c-0.233-0.333-0.623-0.743-1.17-1.23-0.553-0.48-1.23-0.903-2.03-1.27-0.8-0.367-1.683-0.55-2.65-0.55v0c-1.347 0-2.36 0.387-3.04 1.16-0.673 0.773-1.01 1.687-1.01 2.74v0c0 1.347 0.497 2.447 1.49 3.3 0.993 0.847 2.197 1.697 3.61 2.55v0c1.567 0.933 3.017 1.87 4.35 2.81 1.333 0.94 2.41 2.067 3.23 3.38 0.813 1.307 1.22 2.977 1.22 5.01v0c0 3.047-0.957 5.433-2.87 7.16-1.92 1.727-4.547 2.59-7.88 2.59zM37.1 0.75v0c-2.813 0-4.717-0.733-5.71-2.2-0.993-1.467-1.49-3.683-1.49-6.65v0-11.55h-3.25v-5.25h3.5l0.35-5.25 5.45-2.35v7.6h6.15v5.25h-6.15v11.4c0 1.447 0.203 2.45 0.61 3.01 0.413 0.56 0.977 0.84 1.69 0.84v0c0.733 0 1.51-0.193 2.33-0.58 0.813-0.38 1.453-0.77 1.92-1.17v0l1.2 5.05c-0.513 0.367-1.183 0.687-2.01 0.96-0.827 0.28-1.66 0.497-2.5 0.65-0.84 0.16-1.537 0.24-2.09 0.24zM57.75 0.5v0c-3.667 0-6.5-1.15-8.5-3.45-2-2.3-3-5.483-3-9.55v0c0-4.1 1.033-7.293 3.1-9.58 2.067-2.28 4.933-3.42 8.6-3.42v0c3.687 0 6.49 1.18 8.41 3.54 1.927 2.353 2.89 5.507 2.89 9.46v0c0 3.947-0.997 7.1-2.99 9.46-1.987 2.36-4.823 3.54-8.51 3.54zM57.85-4.5v0c3.167 0 4.75-2.667 4.75-8v0c0-5.367-1.583-8.05-4.75-8.05v0c-1.567 0-2.783 0.62-3.65 1.86-0.867 1.247-1.3 3.31-1.3 6.19v0c0 2.867 0.433 4.917 1.3 6.15 0.867 1.233 2.083 1.85 3.65 1.85zM81.05 0h-6.25v-24.9h5.65l0.3 4.4c0.267-0.653 0.68-1.347 1.24-2.08 0.56-0.733 1.333-1.353 2.32-1.86 0.993-0.507 2.273-0.76 3.84-0.76v0c0.487 0 0.913 0.033 1.28 0.1 0.367 0.067 0.707 0.167 1.02 0.3v0l-1.4 6.55c-0.533-0.533-1.35-0.8-2.45-0.8v0c-1.28 0-2.33 0.263-3.15 0.79-0.813 0.52-1.417 1.107-1.81 1.76-0.393 0.647-0.59 1.147-0.59 1.5v0zM103.75 0.65v0c-2.8 0-5.057-0.587-6.77-1.76-1.72-1.18-2.97-2.74-3.75-4.68-0.787-1.94-1.18-4.06-1.18-6.36v0c0-2.42 0.447-4.64 1.34-6.66 0.893-2.027 2.2-3.65 3.92-4.87 1.727-1.213 3.84-1.82 6.34-1.82v0c3.733 0 6.343 1.08 7.83 3.24 1.48 2.153 2.22 5.207 2.22 9.16v0c0 0.347-0.007 0.787-0.02 1.32-0.02 0.533-0.047 0.993-0.08 1.38v0h-15c0.1 1.967 0.653 3.507 1.66 4.62 1.013 1.12 2.527 1.68 4.54 1.68v0c1.033 0 2.143-0.23 3.33-0.69 1.18-0.46 2.053-1.013 2.62-1.66v0l2 4.75c-0.667 0.447-1.72 0.95-3.16 1.51-1.44 0.56-3.387 0.84-5.84 0.84zM98.55-14.3v0h8.8c0-1.753-0.153-3.09-0.46-4.01-0.307-0.927-0.727-1.567-1.26-1.92-0.533-0.347-1.143-0.52-1.83-0.52v0c-1.7 0-2.973 0.63-3.82 1.89-0.853 1.253-1.33 2.773-1.43 4.56z" fill="#ffffff" fill-rule="nonzero" stroke="none" stroke-width="1" stroke-linecap="butt" stroke-linejoin="miter" stroke-miterlimit="10" stroke-dasharray="" stroke-dashoffset="0" font-family="none" font-weight="none" font-size="none" text-anchor="none" style="mix-blend-mode: normal" data-fill-palette-color="primary" opacity="1"></path><path d="M10.4 49.65h-6.2v-35.45h0.5l14.1 16.63 14-16.63h0.55v35.45h-6.2v-14.95l0.23-5.9-1.78 2.7-6.85 8.05-6.85-8.05-1.77-2.7 0.27 5.9zM46.25 50.35v0c-1.533 0-2.803-0.343-3.81-1.03-1.007-0.68-1.757-1.587-2.25-2.72-0.493-1.133-0.74-2.383-0.74-3.75v0c0-0.767 0.197-1.61 0.59-2.53 0.393-0.913 1.09-1.787 2.09-2.62 1-0.833 2.407-1.517 4.22-2.05 1.82-0.533 4.153-0.8 7-0.8v0-1.15c0-1.233-0.297-2.26-0.89-3.08-0.587-0.813-1.773-1.22-3.56-1.22v0c-1.3 0-2.57 0.22-3.81 0.66-1.24 0.44-2.153 0.987-2.74 1.64v0l-2-4.8c1-0.687 2.337-1.317 4.01-1.89 1.68-0.573 3.543-0.86 5.59-0.86v0c2.467 0 4.383 0.373 5.75 1.12 1.367 0.753 2.327 1.817 2.88 3.19 0.547 1.373 0.82 2.987 0.82 4.84v0 16.35h-5.35l-0.45-3.55c-1.733 2.833-4.183 4.25-7.35 4.25zM48.9 45.55v0c0.753 0 1.557-0.303 2.41-0.91 0.86-0.613 1.54-1.393 2.04-2.34v0-3.55c-0.167-0.033-0.347-0.05-0.54-0.05-0.187 0-0.407 0-0.66 0v0c-0.913 0-1.877 0.103-2.89 0.31-1.007 0.207-1.86 0.57-2.56 1.09-0.7 0.513-1.05 1.23-1.05 2.15v0c0 1.2 0.267 2.05 0.8 2.55 0.533 0.5 1.35 0.75 2.45 0.75zM72.5 49.65h-6.4v-24.9h5.8l0.13 3.27c0.647-1 1.553-1.893 2.72-2.68 1.167-0.793 2.7-1.19 4.6-1.19v0c2.533 0 4.417 0.8 5.65 2.4 1.233 1.6 1.85 3.817 1.85 6.65v0 16.45h-6.4v-15.9c0-1.387-0.29-2.507-0.87-3.36-0.587-0.86-1.48-1.29-2.68-1.29v0c-1.167 0-2.19 0.43-3.07 1.29-0.887 0.853-1.33 1.973-1.33 3.36v0zM99.05 50.35v0c-1.533 0-2.803-0.343-3.81-1.03-1.007-0.68-1.757-1.587-2.25-2.72-0.493-1.133-0.74-2.383-0.74-3.75v0c0-0.767 0.197-1.61 0.59-2.53 0.393-0.913 1.09-1.787 2.09-2.62 1-0.833 2.407-1.517 4.22-2.05 1.82-0.533 4.153-0.8 7-0.8v0-1.15c0-1.233-0.297-2.26-0.89-3.08-0.587-0.813-1.773-1.22-3.56-1.22v0c-1.3 0-2.57 0.22-3.81 0.66-1.24 0.44-2.153 0.987-2.74 1.64v0l-2-4.8c1-0.687 2.337-1.317 4.01-1.89 1.68-0.573 3.543-0.86 5.59-0.86v0c2.467 0 4.383 0.373 5.75 1.12 1.367 0.753 2.327 1.817 2.88 3.19 0.547 1.373 0.82 2.987 0.82 4.84v0 16.35h-5.35l-0.45-3.55c-1.733 2.833-4.183 4.25-7.35 4.25zM101.7 45.55v0c0.753 0 1.557-0.303 2.41-0.91 0.86-0.613 1.54-1.393 2.04-2.34v0-3.55c-0.167-0.033-0.347-0.05-0.54-0.05-0.187 0-0.407 0-0.66 0v0c-0.913 0-1.877 0.103-2.89 0.31-1.007 0.207-1.86 0.57-2.56 1.09-0.7 0.513-1.05 1.23-1.05 2.15v0c0 1.2 0.267 2.05 0.8 2.55 0.533 0.5 1.35 0.75 2.45 0.75zM119.55 58.65l2.8-4.7c0.6 0.367 1.33 0.7 2.19 1 0.86 0.3 1.863 0.45 3.01 0.45v0c2.133 0 3.733-0.553 4.8-1.66 1.067-1.107 1.6-2.87 1.6-5.29v0-3.9c-0.233 0.847-0.6 1.687-1.1 2.52-0.5 0.833-1.187 1.523-2.06 2.07-0.873 0.54-1.987 0.81-3.34 0.81v0c-1.88 0-3.583-0.43-5.11-1.29-1.527-0.853-2.74-2.217-3.64-4.09-0.9-1.867-1.35-4.307-1.35-7.32v0c0-3.067 0.447-5.563 1.34-7.49 0.893-1.927 2.093-3.343 3.6-4.25 1.507-0.907 3.177-1.36 5.01-1.36v0c2.053 0 3.62 0.517 4.7 1.55 1.087 1.033 1.737 2.15 1.95 3.35v0l0.7-4.3h4.9v23.7c0 3.82-0.963 6.84-2.89 9.06-1.92 2.227-4.757 3.34-8.51 3.34v0c-2.013 0-3.763-0.253-5.25-0.76-1.48-0.507-2.597-0.987-3.35-1.44zM128.7 45.05v0c1.453 0 2.59-0.687 3.41-2.06 0.827-1.373 1.24-3.32 1.24-5.84v0c0-2.38-0.357-4.3-1.07-5.76-0.72-1.46-1.847-2.19-3.38-2.19v0c-0.847 0-1.66 0.253-2.44 0.76-0.773 0.507-1.41 1.343-1.91 2.51-0.5 1.167-0.75 2.743-0.75 4.73v0c0 2.7 0.463 4.683 1.39 5.95 0.927 1.267 2.097 1.9 3.51 1.9zM156.9 50.3v0c-2.8 0-5.057-0.587-6.77-1.76-1.72-1.18-2.97-2.74-3.75-4.68-0.787-1.94-1.18-4.06-1.18-6.36v0c0-2.42 0.447-4.64 1.34-6.66 0.893-2.027 2.2-3.65 3.92-4.87 1.727-1.213 3.84-1.82 6.34-1.82v0c3.733 0 6.343 1.08 7.83 3.24 1.48 2.153 2.22 5.207 2.22 9.16v0c0 0.347-0.007 0.787-0.02 1.32-0.02 0.533-0.047 0.993-0.08 1.38v0h-15c0.1 1.967 0.653 3.507 1.66 4.62 1.013 1.12 2.527 1.68 4.54 1.68v0c1.033 0 2.143-0.23 3.33-0.69 1.18-0.46 2.053-1.013 2.62-1.66v0l2 4.75c-0.667 0.447-1.72 0.95-3.16 1.51-1.44 0.56-3.387 0.84-5.84 0.84zM151.7 35.35v0h8.8c0-1.753-0.153-3.09-0.46-4.01-0.307-0.927-0.727-1.567-1.26-1.92-0.533-0.347-1.143-0.52-1.83-0.52v0c-1.7 0-2.973 0.63-3.82 1.89-0.853 1.253-1.33 2.773-1.43 4.56zM179.15 49.65h-6.4v-24.9h5.75l0.15 3.3c0.653-1 1.557-1.9 2.71-2.7 1.16-0.8 2.707-1.2 4.64-1.2v0c1.687 0 3.087 0.373 4.2 1.12 1.12 0.753 1.963 1.813 2.53 3.18v0c0.633-1.053 1.543-2.033 2.73-2.94 1.193-0.907 2.857-1.36 4.99-1.36v0c2.5 0 4.367 0.8 5.6 2.4 1.233 1.6 1.85 3.817 1.85 6.65v0 16.45h-6.35v-15.8c0-1.387-0.267-2.507-0.8-3.36-0.533-0.86-1.4-1.29-2.6-1.29v0c-1.167 0-2.223 0.43-3.17 1.29-0.953 0.853-1.43 1.973-1.43 3.36v0 15.8h-6.4v-15.8c0-1.387-0.303-2.523-0.91-3.41-0.607-0.893-1.503-1.34-2.69-1.34v0c-1.2 0-2.233 0.447-3.1 1.34-0.867 0.887-1.3 2.023-1.3 3.41v0zM225.2 50.3v0c-2.8 0-5.057-0.587-6.77-1.76-1.72-1.18-2.97-2.74-3.75-4.68-0.787-1.94-1.18-4.06-1.18-6.36v0c0-2.42 0.447-4.64 1.34-6.66 0.893-2.027 2.2-3.65 3.92-4.87 1.727-1.213 3.84-1.82 6.34-1.82v0c3.733 0 6.343 1.08 7.83 3.24 1.48 2.153 2.22 5.207 2.22 9.16v0c0 0.347-0.007 0.787-0.02 1.32-0.02 0.533-0.047 0.993-0.08 1.38v0h-15c0.1 1.967 0.653 3.507 1.66 4.62 1.007 1.12 2.52 1.68 4.54 1.68v0c1.033 0 2.143-0.23 3.33-0.69 1.18-0.46 2.053-1.013 2.62-1.66v0l2 4.75c-0.667 0.447-1.72 0.95-3.16 1.51-1.44 0.56-3.387 0.84-5.84 0.84zM220 35.35v0h8.8c0-1.753-0.153-3.09-0.46-4.01-0.307-0.927-0.727-1.567-1.26-1.92-0.533-0.347-1.143-0.52-1.83-0.52v0c-1.7 0-2.973 0.63-3.82 1.89-0.853 1.253-1.33 2.773-1.43 4.56zM247.45 49.65h-6.4v-24.9h5.8l0.13 3.27c0.647-1 1.553-1.893 2.72-2.68 1.167-0.793 2.7-1.19 4.6-1.19v0c2.533 0 4.417 0.8 5.65 2.4 1.233 1.6 1.85 3.817 1.85 6.65v0 16.45h-6.4v-15.9c0-1.387-0.29-2.507-0.87-3.36-0.587-0.86-1.48-1.29-2.68-1.29v0c-1.167 0-2.19 0.43-3.07 1.29-0.887 0.853-1.33 1.973-1.33 3.36v0zM277.2 50.4v0c-2.813 0-4.717-0.733-5.71-2.2-0.993-1.467-1.49-3.683-1.49-6.65v0-11.55h-3.25v-5.25h3.5l0.35-5.25 5.45-2.35v7.6h6.15v5.25h-6.15v11.4c0 1.447 0.203 2.45 0.61 3.01 0.413 0.56 0.977 0.84 1.69 0.84v0c0.733 0 1.51-0.193 2.33-0.58 0.813-0.38 1.453-0.77 1.92-1.17v0l1.2 5.05c-0.513 0.367-1.183 0.687-2.01 0.96-0.827 0.28-1.66 0.497-2.5 0.65-0.84 0.16-1.537 0.24-2.09 0.24z" fill="#ffffff" fill-rule="nonzero" stroke="none" stroke-width="1" stroke-linecap="butt" stroke-linejoin="miter" stroke-miterlimit="10" stroke-dasharray="" stroke-dashoffset="0" font-family="none" font-weight="none" font-size="none" text-anchor="none" style="mix-blend-mode: normal" data-fill-palette-color="primary" opacity="1"></path></g></svg></g></svg></g></svg></g></svg></g><g></g></svg></g><defs></defs></svg><rect width="395.52" height="140.4690128755365" fill="none" stroke="none" visibility="hidden"></rect></g></svg></g></svg>